<svg height="48" viewBox="0 0 48 48" width="48" xmlns="http://www.w3.org/2000/svg">
    <g fill="#bebebe" fill-rule="evenodd" clip-rule="evenodd" transform="translate(7.3815 0) scale(33.333351)">
        <path d="m 0.40984353,-4.4605926e-8 h -0.00237 C 0.34744753,-7.4460593e-7 0.29903343,-7.4460593e-7 0.25982773,0.00319996 c -0.040367,0.0033 -0.075824,0.010267 -0.1086269,0.026981 -0.052107,0.026549 -0.094471,0.068913 -0.1210198,0.1210198 -0.016714,0.032803 -0.023682,0.06826 -0.026981,0.1086269 C 2.6202708e-8,0.29903366 2.6202708e-8,0.34744866 2.6202708e-8,0.40747346 v 0.00237 0.62030764 0.00237 C -6.7379729e-7,1.0925431 -6.7379729e-7,1.1409642 0.00320003,1.1801691 c 0.0033,0.040364 0.010267,0.075818 0.026981,0.1086277 0.026549,0.052106 0.068913,0.094464 0.1210198,0.1210191 0.032803,0.016711 0.06826,0.023682 0.1086269,0.026976 0.039206,0.0032 0.08762,0.0032 0.1476458,0.0032 h 0.00237 0.1772307 0.00237 c 0.060029,0 0.1084431,0 0.147648,-0.0032 0.040364,-0.00329 0.075818,-0.010265 0.1086277,-0.026976 0.052106,-0.026555 0.094464,-0.068913 0.1210191,-0.1210191 0.016711,-0.03281 0.023682,-0.068263 0.026976,-0.1086277 0.0032,-0.039205 0.0032,-0.087618 0.0032,-0.147648 v -0.00237 -0.62030764 -0.00237 c 0,-0.060024 0,-0.1084386 -0.0032,-0.1476443 -0.00329,-0.040367 -0.010265,-0.075824 -0.026976,-0.1086269 -0.026555,-0.052107 -0.068913,-0.094471 -0.1210191,-0.1210198 -0.03281,-0.016714 -0.068263,-0.023682 -0.1086277,-0.026981 C 0.69788723,1.4553941e-6 0.64947323,1.4553941e-6 0.58944423,1.4553941e-6 h -0.00237 z M 0.20148803,0.12887926 c 0.014586,-0.00743 0.033842,-0.012537 0.06736,-0.015276 0.034164,-0.00279 0.078046,-0.00283 0.140996,-0.00283 h 0.1772307 c 0.062954,0 0.1068333,4.28e-5 0.1409945,0.00283 0.033519,0.00274 0.052778,0.00784 0.067362,0.015276 0.031259,0.015929 0.056677,0.041348 0.072613,0.072611 0.00743,0.014586 0.012532,0.033843 0.015271,0.06736 0.00279,0.034164 0.00284,0.078046 0.00284,0.140996 V 1.0301539 c 0,0.062954 -4.44e-5,0.1068332 -0.00284,0.1409944 -0.00274,0.033519 -0.00784,0.052778 -0.015271,0.067362 -0.015936,0.031259 -0.041354,0.056677 -0.072613,0.072613 -0.014585,0.00743 -0.033844,0.012532 -0.067362,0.015271 -0.034161,0.00279 -0.078041,0.00284 -0.1409945,0.00284 h -0.1772312 c -0.06295,0 -0.1068325,-4.43e-5 -0.140996,-0.00284 -0.033517,-0.00274 -0.052773,-0.00784 -0.06736,-0.015271 -0.031263,-0.015936 -0.056682,-0.041354 -0.072611,-0.072613 -0.00743,-0.014585 -0.012537,-0.033844 -0.015276,-0.067362 -0.00279,-0.034161 -0.00283,-0.078041 -0.00283,-0.1409944 V 0.40984616 c 0,-0.06295 4.28e-5,-0.1068325 0.00283,-0.140996 0.00274,-0.033517 0.00784,-0.052773 0.015276,-0.06736 0.015929,-0.031264 0.041348,-0.056682 0.0726115,-0.0726109 z m 0.1492786,0.97881294 c -0.030588,0 -0.055385,0.024798 -0.055385,0.055385 0,0.030587 0.024797,0.055385 0.055385,0.055385 h 0.2953846 c 0.030587,0 0.055385,-0.024798 0.055385,-0.055385 0,-0.030587 -0.024798,-0.055385 -0.055385,-0.055385 z"/>
    </g>
</svg>
